<svg xmlns="http://www.w3.org/2000/svg" width="18" height="17.996" viewBox="0 0 18 17.996">

  <path id="ig-icon" class="cls-1" d="M120.393,175H109.608a3.472,3.472,0,0,1-2.658-1,3.227,3.227,0,0,1-.593-.917,4.229,4.229,0,0,1-.276-.915,4.468,4.468,0,0,1-.077-.983c0-.061.1-6.149,0-10.261a3.869,3.869,0,0,1,.946-2.9,3.292,3.292,0,0,1,1.51-.864,4.159,4.159,0,0,1,1.068-.151h10.947a4.159,4.159,0,0,1,1.068.151,3.292,3.292,0,0,1,1.51.864,3.869,3.869,0,0,1,.946,2.9c-.1,4.039,0,10.2,0,10.261a4.459,4.459,0,0,1-.078.983,4.231,4.231,0,0,1-.276.915,3.23,3.23,0,0,1-.593.917A3.472,3.472,0,0,1,120.393,175Zm-5.418-1.714h1.416c1.741,0,2.971-.007,3.656-.022a2.284,2.284,0,0,0,1.75-.65,1.491,1.491,0,0,0,.245-.393,1.631,1.631,0,0,0,.107-.366,1.5,1.5,0,0,0,.02-.376v-7.238H119.6a4.962,4.962,0,1,1-9.23,0h-2.594v7.237a1.48,1.48,0,0,0,.02.376,1.636,1.636,0,0,0,.107.366,1.49,1.49,0,0,0,.246.392,2.284,2.284,0,0,0,1.75.65c.684.015,1.914.022,3.656.022Zm-.023-10.48a3.235,3.235,0,1,0,3.222,3.234A3.232,3.232,0,0,0,114.952,162.8Zm3.888-3.718h0v3.049H121.8v-3.049Z" transform="translate(-106 -157)"/>
</svg>
