<svg xmlns="http://www.w3.org/2000/svg" width="34.791" height="20.501" viewBox="0 0 34.791 20.501">
  <defs>
    <style>
      .cls-1 {
        fill: #241f21;
      }
    </style>
  </defs>
  <g id="search-burger-icon" transform="translate(-57 -382)">
    <rect id="Rectangle_56" data-name="Rectangle 56" class="cls-1" width="27.5" height="4" rx="2" transform="translate(57 382)"/>
    <rect id="Rectangle_57" data-name="Rectangle 57" class="cls-1" width="17.5" height="4" rx="2" transform="translate(57 387.5)"/>
    <rect id="Rectangle_58" data-name="Rectangle 58" class="cls-1" width="17.5" height="4" rx="2" transform="translate(57 393)"/>
    <rect id="Rectangle_59" data-name="Rectangle 59" class="cls-1" width="19.5" height="4" rx="2" transform="translate(57 398)"/>
    <path id="search-icon" class="cls-1" d="M14.949,15.863l-4.132-4.133A6.62,6.62,0,0,1,.52,9.192,6.622,6.622,0,0,1,4.041.52a6.622,6.622,0,0,1,8.672,3.521,6.617,6.617,0,0,1-.642,6.323l4.189,4.188a.927.927,0,0,1-1.31,1.31ZM1.455,6.617A5.029,5.029,0,1,0,6.484,1.589,5.035,5.035,0,0,0,1.455,6.617Z" transform="translate(75.261 386.367)"/>
  </g>
</svg>
