<svg xmlns="http://www.w3.org/2000/svg" width="20.337" height="20.216" viewBox="0 0 20.337 20.216">
  <g id="view_more_i" transform="translate(-1727.498 -1791.499)">
    <path id="Subtraction_12" data-name="Subtraction 12" d="M11.159,18.141c-.67,0-1.363,0-2.061-.013-.7.008-1.39.013-2.062.013-1.332,0-2.54-.017-3.589-.05a3.688,3.688,0,0,1-2.04-.613A3.082,3.082,0,0,1,.389,16.239a4.292,4.292,0,0,1-.351-1.217A3.754,3.754,0,0,1,0,14.473H0V3.844A4.283,4.283,0,0,1,.539,1.622,3.142,3.142,0,0,1,1.724.481,3.953,3.953,0,0,1,2.909.06,3.3,3.3,0,0,1,3.447,0H7.064V3.675H3.617V14.529H14.466V10.968H18.2v3.505a3.706,3.706,0,0,1-.038.55,4.294,4.294,0,0,1-.35,1.217,3.082,3.082,0,0,1-1.018,1.238,3.688,3.688,0,0,1-2.04.613C13.7,18.124,12.493,18.141,11.159,18.141Z" transform="translate(1727.498 1793.573)"/>
    <path id="Union_10" data-name="Union 10" d="M0,10.373A2.07,2.07,0,0,1,.711,8.809L.7,8.8,5.755,3.815,3.832,1.758A.937.937,0,0,1,4.476.02L4.484,0h7.161l.009.008A.964.964,0,0,1,11.778,0a.938.938,0,0,1,.893,1.22L12.447,8.3l-.01,0a.937.937,0,0,1-1.687.411L8.7,6.726,3.79,11.54A2.075,2.075,0,0,1,0,10.373Z" transform="translate(1735.12 1791.499)"/>
  </g>
</svg>
