<svg xmlns="http://www.w3.org/2000/svg" width="22.906" height="17.151" viewBox="0 0 22.906 17.151"><g transform="translate(-65 -487.162)"><path d="M11.345,17.151h0A10.831,10.831,0,0,1,3.809,13.7,24.448,24.448,0,0,1,0,8.768,15.3,15.3,0,0,1,3.429,3.724,13.535,13.535,0,0,1,7.316,1.118,12.593,12.593,0,0,1,11.817,0h.159A9.954,9.954,0,0,1,19.24,3.457,23.82,23.82,0,0,1,22.825,8.62l.016.03.065.118a17.254,17.254,0,0,1-5,6.009,13.02,13.02,0,0,1-3.019,1.69,9.606,9.606,0,0,1-3.072.672C11.66,17.147,11.5,17.151,11.345,17.151ZM11.538,2.32a6.108,6.108,0,1,0,6.108,6.108A6.115,6.115,0,0,0,11.538,2.32Z" transform="translate(65 487.162)" fill="#3e3e3e"/><circle cx="2.884" cy="2.884" r="2.884" transform="translate(73.823 492.876)" fill="#393939"/></g></svg>